<svg xmlns="http://www.w3.org/2000/svg" viewBox="0 0 400 300">
  <rect width="400" height="300" fill="#1a1a2e"/>
  <rect x="20" y="20" width="360" height="260" rx="8" fill="#0d2137"/>
  <path d="M80 190 L90 120 L120 95 L280 95 L310 120 L320 190 Z" fill="#2196f3" stroke="#64b5f6" stroke-width="2"/>
  <path d="M120 95 L170 55 L230 55 L280 95 Z" fill="#1565c0" stroke="#64b5f6" stroke-width="1.5"/>
  <path d="M125 100 L168 63 L222 63 L270 100 Z" fill="#bbdefb" opacity="0.5"/>
  <circle cx="130" cy="190" r="22" fill="#111" stroke="#333" stroke-width="3"/>
  <circle cx="130" cy="190" r="10" fill="#888"/>
  <circle cx="270" cy="190" r="22" fill="#111" stroke="#333" stroke-width="3"/>
  <circle cx="270" cy="190" r="10" fill="#888"/>
  <circle cx="310" cy="135" r="6" fill="#90caf9"/>
  <circle cx="90" cy="135" r="5" fill="#fff" opacity="0.8"/>
  <rect x="78" y="130" width="12" height="22" rx="3" fill="#ff3d00"/>
  <line x1="160" y1="125" x2="240" y2="125" stroke="#64b5f6" stroke-width="2" opacity="0.5"/>
  <text x="200" y="255" text-anchor="middle" fill="#90caf9" font-family="Arial" font-size="12" font-weight="bold" letter-spacing="2">DEORA III</text>
</svg>