<svg xmlns="http://www.w3.org/2000/svg" viewBox="0 0 400 300">
  <rect width="400" height="300" fill="#1a1a2e"/>
  <rect x="20" y="20" width="360" height="260" rx="8" fill="#1a0a00"/>
  <!-- F1 car shape - low and wide -->
  <path d="M60 190 L70 140 L100 120 L180 115 L220 115 L300 120 L330 140 L340 190 Z" fill="#ff3d00" stroke="#ff6d00" stroke-width="2"/>
  <path d="M180 115 L200 90 L220 90 L240 115 Z" fill="#cc0000" stroke="#ff6d00" stroke-width="1"/>
  <!-- Cockpit -->
  <path d="M190 118 L200 100 L210 100 L220 118 Z" fill="#fff" opacity="0.3"/>
  <!-- Front wing -->
  <path d="M300 140 L340 130 L340 150 L300 155 Z" fill="#cc0000"/>
  <!-- Rear wing -->
  <path d="M60 140 L40 130 L40 150 L60 155 Z" fill="#cc0000"/>
  <!-- Wheels -->
  <circle cx="120" cy="190" r="20" fill="#111" stroke="#333" stroke-width="3"/>
  <circle cx="120" cy="190" r="8" fill="#888"/>
  <circle cx="280" cy="190" r="20" fill="#111" stroke="#333" stroke-width="3"/>
  <circle cx="280" cy="190" r="8" fill="#888"/>
  <text x="200" y="255" text-anchor="middle" fill="#ff6d00" font-family="Arial" font-size="11" font-weight="bold" letter-spacing="1">MCLAREN F1 2024</text>
</svg>