<svg xmlns="http://www.w3.org/2000/svg" viewBox="0 0 400 300">
  <rect width="400" height="300" fill="#1a1a2e"/>
  <rect x="20" y="20" width="360" height="260" rx="8" fill="#1e1e2f"/>
  <path d="M80 190 L90 130 L120 105 L280 105 L310 130 L320 190 Z" fill="#c0c0c0" stroke="#e0e0e0" stroke-width="2"/>
  <path d="M120 105 L180 70 L220 70 L280 105 Z" fill="#9e9e9e" stroke="#e0e0e0" stroke-width="1.5"/>
  <path d="M125 110 L175 78 L215 78 L270 110 Z" fill="#e0e0e0" opacity="0.4"/>
  <circle cx="130" cy="190" r="22" fill="#111" stroke="#333" stroke-width="3"/>
  <circle cx="130" cy="190" r="10" fill="#888"/>
  <circle cx="270" cy="190" r="22" fill="#111" stroke="#333" stroke-width="3"/>
  <circle cx="270" cy="190" r="10" fill="#888"/>
  <circle cx="310" cy="145" r="6" fill="#ffd700"/>
  <circle cx="90" cy="145" r="5" fill="#fff" opacity="0.8"/>
  <rect x="78" y="140" width="12" height="20" rx="3" fill="#ff3d00"/>
  <text x="200" y="255" text-anchor="middle" fill="#e0e0e0" font-family="Arial" font-size="12" font-weight="bold" letter-spacing="2">TWIN MILL</text>
</svg>